<svg width="24" height="24" viewBox="0 0 24 24" fill="none" xmlns="http://www.w3.org/2000/svg">
<circle cx="12" cy="12" r="12" fill="#FEF2F3"/>
<path d="M20.4375 16.4993H19.875V9.56556C19.9251 9.53706 19.9693 9.49824 20.0019 9.44931C20.0571 9.36666 20.0772 9.26551 20.0578 9.16806L18.8846 3.29968C18.875 3.25138 18.8559 3.20545 18.8285 3.16452C18.8012 3.12358 18.766 3.08845 18.725 3.06111C18.684 3.03377 18.6381 3.01478 18.5898 3.0052C18.5415 2.99563 18.4917 2.99566 18.4434 3.00531L16.4209 3.40956C16.3234 3.42906 16.2377 3.48643 16.1824 3.56931C16.1319 3.64579 16.1113 3.73813 16.1244 3.82881L13.0149 4.45299L13.0144 4.45243C12.7449 4.22626 12.4043 4.10213 12.0525 4.10181C11.475 4.10181 10.9706 4.42993 10.7213 4.91181L10.7203 4.91368L5.06662 6.04862C4.96918 6.06821 4.8835 6.12568 4.82841 6.20841C4.77332 6.29113 4.75332 6.39235 4.77281 6.48981L4.9935 7.59137C5.00475 7.64687 5.02912 7.69768 5.0625 7.74212V18.3743H4.4985C4.15096 18.3747 3.81776 18.5129 3.57199 18.7587C3.32622 19.0044 3.18795 19.3376 3.1875 19.6851V20.5952C3.1875 20.818 3.37088 20.9993 3.59625 20.9993H7.27875C7.50413 20.9993 7.6875 20.818 7.6875 20.5952V19.6851C7.68705 19.3376 7.54878 19.0044 7.30301 18.7587C7.05724 18.5129 6.72404 18.3747 6.3765 18.3743H5.8125V7.80981L10.875 6.79393V7.49931H10.6886C10.5969 7.49934 10.5084 7.53298 10.4398 7.59386C10.3712 7.65473 10.3274 7.73863 10.3164 7.82968L9.74025 12.6246L9.74006 12.6272L9.22988 16.8743H9C8.90054 16.8743 8.80516 16.9138 8.73483 16.9841C8.66451 17.0545 8.625 17.1499 8.625 17.2493V20.6243C8.625 20.7238 8.66451 20.8191 8.73483 20.8895C8.80516 20.9598 8.90054 20.9993 9 20.9993H15C15.0995 20.9993 15.1948 20.9598 15.2652 20.8895C15.3355 20.8191 15.375 20.7238 15.375 20.6243V17.2493C15.375 17.1499 15.3355 17.0545 15.2652 16.9841C15.1948 16.9138 15.0995 16.8743 15 16.8743H14.7701L14.2601 12.6272L14.2598 12.6246L13.6836 7.82968C13.6726 7.73863 13.6288 7.65473 13.5602 7.59386C13.4916 7.53298 13.4031 7.49934 13.3114 7.49931H13.125V6.64806C13.2287 6.54238 13.3156 6.42149 13.3828 6.28956L16.4897 5.66724L16.9039 7.73856C16.9202 7.82049 16.9635 7.89456 17.0267 7.94912L18.9649 9.62124C19.011 9.66047 19.0659 9.68794 19.125 9.70131V16.4993H18.5625C18.463 16.4993 18.3677 16.5388 18.2973 16.6091C18.227 16.6795 18.1875 16.7749 18.1875 16.8743V20.6243C18.1875 20.7238 18.227 20.8191 18.2973 20.8895C18.3677 20.9598 18.463 20.9993 18.5625 20.9993H20.4375C20.537 20.9993 20.6323 20.9598 20.7027 20.8895C20.773 20.8191 20.8125 20.7238 20.8125 20.6243V16.8743C20.8125 16.7749 20.773 16.6795 20.7027 16.6091C20.6323 16.5388 20.537 16.4993 20.4375 16.4993ZM6.9375 19.6851V20.2493H3.9375V19.6851C3.9377 19.5364 3.99687 19.3939 4.10204 19.2887C4.20721 19.1836 4.34979 19.1245 4.4985 19.1243H6.3765C6.52521 19.1245 6.66779 19.1836 6.77296 19.2887C6.87813 19.3939 6.9373 19.5364 6.9375 19.6851ZM11.34 5.36931C11.4375 5.06931 11.7206 4.85181 12.0525 4.85181C12.2775 4.85181 12.4781 4.95118 12.615 5.10681C12.701 5.20423 12.7602 5.32234 12.7869 5.44954C12.8135 5.57675 12.8066 5.70869 12.7669 5.83243C12.7177 5.98321 12.6221 6.11459 12.4938 6.20786C12.3656 6.30112 12.2111 6.3515 12.0525 6.35181C11.8294 6.35181 11.6287 6.25243 11.4919 6.09681C11.3696 5.96099 11.3021 5.78458 11.3025 5.60181C11.3025 5.52493 11.3138 5.44993 11.3363 5.37868C11.3381 5.37493 11.3381 5.37118 11.34 5.36931ZM10.5562 5.71168V5.71243C10.5656 5.83993 10.5919 5.96181 10.6313 6.07806L5.655 7.07612L5.58169 6.70993L10.5562 5.71168ZM12.9788 8.24931L13.1413 9.60287L12 10.5691L10.8587 9.60287L11.0212 8.24931H12.75H12.9788ZM10.7516 10.4948L11.4197 11.0603L10.6003 11.7541L10.7516 10.4948ZM13.5322 12.8579L12 14.2049L10.4677 12.8579L10.4689 12.8481L12 11.5517L13.5311 12.8481L13.5322 12.8579ZM10.3594 13.7612L11.4323 14.7044L10.1061 15.8701L10.3594 13.7612ZM12 15.2037L13.9005 16.8743H10.0995L12 15.2037ZM12.5681 14.7042L13.6408 13.7611L13.8941 15.8701L12.5681 14.7042ZM13.3997 11.7541L12.5803 11.0603L13.2484 10.4948L13.3997 11.7541ZM14.625 20.2493H9.375V17.6243H14.625V20.2493ZM12.375 7.49931H11.625V7.03993C11.76 7.07931 11.9044 7.10181 12.0525 7.10181C12.1631 7.10181 12.2719 7.09056 12.375 7.06618V7.49931ZM13.5487 5.49156V5.49118C13.5393 5.36675 13.5141 5.24401 13.4738 5.12593L16.2694 4.56474L16.3427 4.93187L13.5487 5.49156ZM17.6141 7.46537L16.9356 4.07162L18.2228 3.81437L19.2315 8.86074L17.6141 7.46537ZM20.0625 20.2493H18.9375V17.2493H20.0625V20.2493Z" fill="#CF2031"/>
</svg>
